<mxfile host="app.diagrams.net" modified="2023-01-03T19:17:21.296Z" agent="5.0 (Windows NT 10.0; Win64; x64) AppleWebKit/537.36 (KHTML, like Gecko) Chrome/108.0.0.0 Safari/537.36 Edg/108.0.1462.54" version="20.8.0" etag="dyzysi0L2IDOfvGR8sUY" type="github">
  <diagram id="oqoqRvbYc-naUWVSfU3T" name="PÃ¡gina-1">
    <mxGraphModel dx="1707" dy="1653" grid="1" gridSize="10" guides="1" tooltips="1" connect="1" arrows="1" fold="1" page="1" pageScale="1" pageWidth="827" pageHeight="1169" math="0" shadow="0">
      <root>
        <mxCell id="0" />
        <mxCell id="1" parent="0" />
        <mxCell id="uNI_Savehtp89ngY_AbR-4" value="streamingService" style="swimlane;whiteSpace=wrap;html=1;startSize=20;" vertex="1" parent="1">
          <mxGeometry x="-60" width="130" height="90" as="geometry" />
        </mxCell>
        <mxCell id="uNI_Savehtp89ngY_AbR-5" value="id: uuid" style="text;html=1;strokeColor=none;fillColor=none;align=center;verticalAlign=middle;whiteSpace=wrap;rounded=0;fontSize=14;" vertex="1" parent="uNI_Savehtp89ngY_AbR-4">
          <mxGeometry x="10" y="30" width="60" height="30" as="geometry" />
        </mxCell>
        <mxCell id="uNI_Savehtp89ngY_AbR-6" value="name: string" style="text;html=1;strokeColor=none;fillColor=none;align=center;verticalAlign=middle;whiteSpace=wrap;rounded=0;fontSize=14;" vertex="1" parent="uNI_Savehtp89ngY_AbR-4">
          <mxGeometry y="50" width="110" height="30" as="geometry" />
        </mxCell>
        <mxCell id="uNI_Savehtp89ngY_AbR-7" value="Actor" style="swimlane;whiteSpace=wrap;html=1;fontSize=14;" vertex="1" parent="1">
          <mxGeometry x="560" y="50" width="130" height="120" as="geometry" />
        </mxCell>
        <mxCell id="uNI_Savehtp89ngY_AbR-8" value="id: uuid" style="text;html=1;strokeColor=none;fillColor=none;align=center;verticalAlign=middle;whiteSpace=wrap;rounded=0;fontSize=14;" vertex="1" parent="uNI_Savehtp89ngY_AbR-7">
          <mxGeometry x="10" y="30" width="60" height="30" as="geometry" />
        </mxCell>
        <mxCell id="uNI_Savehtp89ngY_AbR-9" value="name: string" style="text;html=1;strokeColor=none;fillColor=none;align=center;verticalAlign=middle;whiteSpace=wrap;rounded=0;fontSize=14;" vertex="1" parent="uNI_Savehtp89ngY_AbR-7">
          <mxGeometry x="5" y="50" width="100" height="30" as="geometry" />
        </mxCell>
        <mxCell id="uNI_Savehtp89ngY_AbR-10" value="birthDate: date" style="text;html=1;strokeColor=none;fillColor=none;align=center;verticalAlign=middle;whiteSpace=wrap;rounded=0;fontSize=14;" vertex="1" parent="uNI_Savehtp89ngY_AbR-7">
          <mxGeometry x="5" y="70" width="110" height="30" as="geometry" />
        </mxCell>
        <mxCell id="uNI_Savehtp89ngY_AbR-37" value="avatarUrl: string" style="text;html=1;align=center;verticalAlign=middle;resizable=0;points=[];autosize=1;strokeColor=none;fillColor=none;fontSize=14;" vertex="1" parent="uNI_Savehtp89ngY_AbR-7">
          <mxGeometry y="90" width="120" height="30" as="geometry" />
        </mxCell>
        <mxCell id="uNI_Savehtp89ngY_AbR-11" value="work" style="swimlane;whiteSpace=wrap;html=1;fontSize=14;" vertex="1" parent="1">
          <mxGeometry x="190" y="230" width="190" height="230" as="geometry" />
        </mxCell>
        <mxCell id="uNI_Savehtp89ngY_AbR-12" value="id: uuid" style="text;html=1;strokeColor=none;fillColor=none;align=center;verticalAlign=middle;whiteSpace=wrap;rounded=0;fontSize=14;" vertex="1" parent="uNI_Savehtp89ngY_AbR-11">
          <mxGeometry x="15" y="30" width="60" height="30" as="geometry" />
        </mxCell>
        <mxCell id="uNI_Savehtp89ngY_AbR-13" value="name: string&lt;br&gt;" style="text;html=1;strokeColor=none;fillColor=none;align=center;verticalAlign=middle;whiteSpace=wrap;rounded=0;fontSize=14;" vertex="1" parent="uNI_Savehtp89ngY_AbR-11">
          <mxGeometry y="50" width="115" height="30" as="geometry" />
        </mxCell>
        <mxCell id="uNI_Savehtp89ngY_AbR-16" value="synopsis: string" style="text;html=1;strokeColor=none;fillColor=none;align=center;verticalAlign=middle;whiteSpace=wrap;rounded=0;fontSize=14;" vertex="1" parent="uNI_Savehtp89ngY_AbR-11">
          <mxGeometry x="15" y="70" width="110" height="30" as="geometry" />
        </mxCell>
        <mxCell id="uNI_Savehtp89ngY_AbR-17" value="releaseYear: date" style="text;html=1;strokeColor=none;fillColor=none;align=center;verticalAlign=middle;whiteSpace=wrap;rounded=0;fontSize=14;" vertex="1" parent="uNI_Savehtp89ngY_AbR-11">
          <mxGeometry x="15" y="90" width="120" height="30" as="geometry" />
        </mxCell>
        <mxCell id="uNI_Savehtp89ngY_AbR-18" value="director: string" style="text;html=1;strokeColor=none;fillColor=none;align=center;verticalAlign=middle;whiteSpace=wrap;rounded=0;fontSize=14;" vertex="1" parent="uNI_Savehtp89ngY_AbR-11">
          <mxGeometry x="15" y="110" width="95" height="30" as="geometry" />
        </mxCell>
        <mxCell id="uNI_Savehtp89ngY_AbR-22" value="streamingService_id: uuid" style="text;html=1;strokeColor=none;fillColor=none;align=center;verticalAlign=middle;whiteSpace=wrap;rounded=0;fontSize=14;" vertex="1" parent="uNI_Savehtp89ngY_AbR-11">
          <mxGeometry y="130" width="200" height="30" as="geometry" />
        </mxCell>
        <mxCell id="uNI_Savehtp89ngY_AbR-24" value="coverUrl: string" style="text;html=1;strokeColor=none;fillColor=none;align=center;verticalAlign=middle;whiteSpace=wrap;rounded=0;fontSize=14;" vertex="1" parent="uNI_Savehtp89ngY_AbR-11">
          <mxGeometry y="150" width="130" height="30" as="geometry" />
        </mxCell>
        <mxCell id="uNI_Savehtp89ngY_AbR-38" value="duration: integer&lt;br&gt;" style="text;html=1;align=center;verticalAlign=middle;resizable=0;points=[];autosize=1;strokeColor=none;fillColor=none;fontSize=14;" vertex="1" parent="uNI_Savehtp89ngY_AbR-11">
          <mxGeometry x="10" y="170" width="120" height="30" as="geometry" />
        </mxCell>
        <mxCell id="uNI_Savehtp89ngY_AbR-39" value="ageRating: integer" style="text;html=1;align=center;verticalAlign=middle;resizable=0;points=[];autosize=1;strokeColor=none;fillColor=none;fontSize=14;" vertex="1" parent="uNI_Savehtp89ngY_AbR-11">
          <mxGeometry x="5" y="190" width="140" height="30" as="geometry" />
        </mxCell>
        <mxCell id="uNI_Savehtp89ngY_AbR-19" value="genre" style="swimlane;whiteSpace=wrap;html=1;fontSize=14;" vertex="1" parent="1">
          <mxGeometry x="600" y="230" width="156" height="150" as="geometry" />
        </mxCell>
        <mxCell id="uNI_Savehtp89ngY_AbR-20" value="work_genre" style="swimlane;whiteSpace=wrap;html=1;fontSize=14;startSize=23;" vertex="1" parent="1">
          <mxGeometry x="414" y="230" width="130" height="110" as="geometry" />
        </mxCell>
        <mxCell id="uNI_Savehtp89ngY_AbR-21" value="work_actor" style="swimlane;whiteSpace=wrap;html=1;fontSize=14;" vertex="1" parent="1">
          <mxGeometry x="340" y="50" width="140" height="90" as="geometry" />
        </mxCell>
        <mxCell id="uNI_Savehtp89ngY_AbR-40" value="work_id: uuid" style="text;html=1;align=center;verticalAlign=middle;resizable=0;points=[];autosize=1;strokeColor=none;fillColor=none;fontSize=14;" vertex="1" parent="uNI_Savehtp89ngY_AbR-21">
          <mxGeometry x="10" y="30" width="110" height="30" as="geometry" />
        </mxCell>
        <mxCell id="uNI_Savehtp89ngY_AbR-41" value="actor_id: uuid" style="text;html=1;align=center;verticalAlign=middle;resizable=0;points=[];autosize=1;strokeColor=none;fillColor=none;fontSize=14;" vertex="1" parent="uNI_Savehtp89ngY_AbR-21">
          <mxGeometry x="10" y="50" width="110" height="30" as="geometry" />
        </mxCell>
        <mxCell id="uNI_Savehtp89ngY_AbR-25" value="user_streamingService" style="swimlane;whiteSpace=wrap;html=1;fontSize=14;" vertex="1" parent="1">
          <mxGeometry x="-20" y="230" width="190" height="150" as="geometry" />
        </mxCell>
        <mxCell id="uNI_Savehtp89ngY_AbR-26" value="workScore" style="swimlane;whiteSpace=wrap;html=1;fontSize=14;" vertex="1" parent="1">
          <mxGeometry x="180" y="490" width="140" height="130" as="geometry" />
        </mxCell>
        <mxCell id="uNI_Savehtp89ngY_AbR-32" value="user_id: uuid" style="text;html=1;align=center;verticalAlign=middle;resizable=0;points=[];autosize=1;strokeColor=none;fillColor=none;fontSize=14;" vertex="1" parent="uNI_Savehtp89ngY_AbR-26">
          <mxGeometry x="15" y="30" width="100" height="30" as="geometry" />
        </mxCell>
        <mxCell id="uNI_Savehtp89ngY_AbR-33" value="work_id: uuid" style="text;html=1;align=center;verticalAlign=middle;resizable=0;points=[];autosize=1;strokeColor=none;fillColor=none;fontSize=14;" vertex="1" parent="uNI_Savehtp89ngY_AbR-26">
          <mxGeometry x="10" y="50" width="110" height="30" as="geometry" />
        </mxCell>
        <mxCell id="uNI_Savehtp89ngY_AbR-34" value="score: integer" style="text;html=1;strokeColor=none;fillColor=none;align=center;verticalAlign=middle;whiteSpace=wrap;rounded=0;fontSize=14;" vertex="1" parent="uNI_Savehtp89ngY_AbR-26">
          <mxGeometry x="10" y="70" width="110" height="30" as="geometry" />
        </mxCell>
        <mxCell id="uNI_Savehtp89ngY_AbR-35" value="review: string" style="text;html=1;align=center;verticalAlign=middle;resizable=0;points=[];autosize=1;strokeColor=none;fillColor=none;fontSize=14;" vertex="1" parent="uNI_Savehtp89ngY_AbR-26">
          <mxGeometry x="10" y="90" width="110" height="30" as="geometry" />
        </mxCell>
        <mxCell id="uNI_Savehtp89ngY_AbR-27" value="user" style="swimlane;whiteSpace=wrap;html=1;fontSize=14;" vertex="1" parent="1">
          <mxGeometry x="-30" y="490" width="160" height="120" as="geometry" />
        </mxCell>
        <mxCell id="uNI_Savehtp89ngY_AbR-29" value="id: uuid" style="text;html=1;strokeColor=none;fillColor=none;align=center;verticalAlign=middle;whiteSpace=wrap;rounded=0;fontSize=14;" vertex="1" parent="uNI_Savehtp89ngY_AbR-27">
          <mxGeometry x="20" y="30" width="60" height="30" as="geometry" />
        </mxCell>
        <mxCell id="uNI_Savehtp89ngY_AbR-30" value="username: string" style="text;html=1;strokeColor=none;fillColor=none;align=center;verticalAlign=middle;whiteSpace=wrap;rounded=0;fontSize=14;" vertex="1" parent="uNI_Savehtp89ngY_AbR-27">
          <mxGeometry x="20" y="50" width="110" height="30" as="geometry" />
        </mxCell>
        <mxCell id="uNI_Savehtp89ngY_AbR-31" value="email: string" style="text;html=1;strokeColor=none;fillColor=none;align=center;verticalAlign=middle;whiteSpace=wrap;rounded=0;fontSize=14;" vertex="1" parent="uNI_Savehtp89ngY_AbR-27">
          <mxGeometry x="20" y="70" width="80" height="30" as="geometry" />
        </mxCell>
        <mxCell id="uNI_Savehtp89ngY_AbR-28" value="avatarUrl: string" style="text;html=1;strokeColor=none;fillColor=none;align=center;verticalAlign=middle;whiteSpace=wrap;rounded=0;fontSize=14;" vertex="1" parent="uNI_Savehtp89ngY_AbR-27">
          <mxGeometry x="20" y="90" width="110" height="30" as="geometry" />
        </mxCell>
        <mxCell id="uNI_Savehtp89ngY_AbR-36" value="work_streamingService" style="swimlane;whiteSpace=wrap;html=1;fontSize=14;" vertex="1" parent="1">
          <mxGeometry x="410" y="410" width="200" height="200" as="geometry" />
        </mxCell>
        <mxCell id="uNI_Savehtp89ngY_AbR-56" value="work" style="shape=table;startSize=30;container=1;collapsible=1;childLayout=tableLayout;fixedRows=1;rowLines=0;fontStyle=1;align=center;resizeLast=1;fontSize=14;" vertex="1" parent="1">
          <mxGeometry x="130" y="-70" width="180" height="150" as="geometry">
            <mxRectangle x="180" y="-80" width="70" height="30" as="alternateBounds" />
          </mxGeometry>
        </mxCell>
        <mxCell id="uNI_Savehtp89ngY_AbR-57" value="" style="shape=tableRow;horizontal=0;startSize=0;swimlaneHead=0;swimlaneBody=0;fillColor=none;collapsible=0;dropTarget=0;points=[[0,0.5],[1,0.5]];portConstraint=eastwest;top=0;left=0;right=0;bottom=1;fontSize=14;" vertex="1" parent="uNI_Savehtp89ngY_AbR-56">
          <mxGeometry y="30" width="180" height="30" as="geometry" />
        </mxCell>
        <mxCell id="uNI_Savehtp89ngY_AbR-58" value="PK" style="shape=partialRectangle;connectable=0;fillColor=none;top=0;left=0;bottom=0;right=0;fontStyle=1;overflow=hidden;fontSize=14;" vertex="1" parent="uNI_Savehtp89ngY_AbR-57">
          <mxGeometry width="30" height="30" as="geometry">
            <mxRectangle width="30" height="30" as="alternateBounds" />
          </mxGeometry>
        </mxCell>
        <mxCell id="uNI_Savehtp89ngY_AbR-59" value="id: uuid" style="shape=partialRectangle;connectable=0;fillColor=none;top=0;left=0;bottom=0;right=0;align=left;spacingLeft=6;fontStyle=5;overflow=hidden;fontSize=14;" vertex="1" parent="uNI_Savehtp89ngY_AbR-57">
          <mxGeometry x="30" width="150" height="30" as="geometry">
            <mxRectangle width="150" height="30" as="alternateBounds" />
          </mxGeometry>
        </mxCell>
        <mxCell id="uNI_Savehtp89ngY_AbR-60" value="" style="shape=tableRow;horizontal=0;startSize=0;swimlaneHead=0;swimlaneBody=0;fillColor=none;collapsible=0;dropTarget=0;points=[[0,0.5],[1,0.5]];portConstraint=eastwest;top=0;left=0;right=0;bottom=0;fontSize=14;" vertex="1" parent="uNI_Savehtp89ngY_AbR-56">
          <mxGeometry y="60" width="180" height="30" as="geometry" />
        </mxCell>
        <mxCell id="uNI_Savehtp89ngY_AbR-61" value="" style="shape=partialRectangle;connectable=0;fillColor=none;top=0;left=0;bottom=0;right=0;editable=1;overflow=hidden;fontSize=14;" vertex="1" parent="uNI_Savehtp89ngY_AbR-60">
          <mxGeometry width="30" height="30" as="geometry">
            <mxRectangle width="30" height="30" as="alternateBounds" />
          </mxGeometry>
        </mxCell>
        <mxCell id="uNI_Savehtp89ngY_AbR-62" value="name: string" style="shape=partialRectangle;connectable=0;fillColor=none;top=0;left=0;bottom=0;right=0;align=left;spacingLeft=6;overflow=hidden;fontSize=14;" vertex="1" parent="uNI_Savehtp89ngY_AbR-60">
          <mxGeometry x="30" width="150" height="30" as="geometry">
            <mxRectangle width="150" height="30" as="alternateBounds" />
          </mxGeometry>
        </mxCell>
        <mxCell id="uNI_Savehtp89ngY_AbR-63" value="" style="shape=tableRow;horizontal=0;startSize=0;swimlaneHead=0;swimlaneBody=0;fillColor=none;collapsible=0;dropTarget=0;points=[[0,0.5],[1,0.5]];portConstraint=eastwest;top=0;left=0;right=0;bottom=0;fontSize=14;" vertex="1" parent="uNI_Savehtp89ngY_AbR-56">
          <mxGeometry y="90" width="180" height="30" as="geometry" />
        </mxCell>
        <mxCell id="uNI_Savehtp89ngY_AbR-64" value="" style="shape=partialRectangle;connectable=0;fillColor=none;top=0;left=0;bottom=0;right=0;editable=1;overflow=hidden;fontSize=14;" vertex="1" parent="uNI_Savehtp89ngY_AbR-63">
          <mxGeometry width="30" height="30" as="geometry">
            <mxRectangle width="30" height="30" as="alternateBounds" />
          </mxGeometry>
        </mxCell>
        <mxCell id="uNI_Savehtp89ngY_AbR-65" value="synopsis: string" style="shape=partialRectangle;connectable=0;fillColor=none;top=0;left=0;bottom=0;right=0;align=left;spacingLeft=6;overflow=hidden;fontSize=14;" vertex="1" parent="uNI_Savehtp89ngY_AbR-63">
          <mxGeometry x="30" width="150" height="30" as="geometry">
            <mxRectangle width="150" height="30" as="alternateBounds" />
          </mxGeometry>
        </mxCell>
        <mxCell id="uNI_Savehtp89ngY_AbR-66" value="" style="shape=tableRow;horizontal=0;startSize=0;swimlaneHead=0;swimlaneBody=0;fillColor=none;collapsible=0;dropTarget=0;points=[[0,0.5],[1,0.5]];portConstraint=eastwest;top=0;left=0;right=0;bottom=0;fontSize=14;" vertex="1" parent="uNI_Savehtp89ngY_AbR-56">
          <mxGeometry y="120" width="180" height="30" as="geometry" />
        </mxCell>
        <mxCell id="uNI_Savehtp89ngY_AbR-67" value="" style="shape=partialRectangle;connectable=0;fillColor=none;top=0;left=0;bottom=0;right=0;editable=1;overflow=hidden;fontSize=14;" vertex="1" parent="uNI_Savehtp89ngY_AbR-66">
          <mxGeometry width="30" height="30" as="geometry">
            <mxRectangle width="30" height="30" as="alternateBounds" />
          </mxGeometry>
        </mxCell>
        <mxCell id="uNI_Savehtp89ngY_AbR-68" value="releaseYear: date" style="shape=partialRectangle;connectable=0;fillColor=none;top=0;left=0;bottom=0;right=0;align=left;spacingLeft=6;overflow=hidden;fontSize=14;" vertex="1" parent="uNI_Savehtp89ngY_AbR-66">
          <mxGeometry x="30" width="150" height="30" as="geometry">
            <mxRectangle width="150" height="30" as="alternateBounds" />
          </mxGeometry>
        </mxCell>
      </root>
    </mxGraphModel>
  </diagram>
</mxfile>
